<svg width="48" height="48" viewBox="0 0 48 48" fill="none" xmlns="http://www.w3.org/2000/svg">
<path d="M27.75 27.75H5.25C4.45435 27.75 3.69129 28.0661 3.12868 28.6287C2.56607 29.1913 2.25 29.9544 2.25 30.75V45.75H30.75V30.75C30.75 29.9544 30.4339 29.1913 29.8713 28.6287C29.3087 28.0661 28.5456 27.75 27.75 27.75Z" fill="#EBA72E"/>
<path d="M15.75 28.5H17.25V38.25H15.75V28.5Z" fill="#E09F2C"/>
<path d="M44.0063 23.25C43.6731 23.25 43.3536 23.3824 43.118 23.6179C42.8824 23.8535 42.75 24.1731 42.75 24.5062C42.7498 24.3244 42.71 24.1448 42.6335 23.9798C42.5571 23.8149 42.4457 23.6685 42.3071 23.5508C42.1685 23.433 42.0061 23.3468 41.8309 23.298C41.6557 23.2492 41.4721 23.239 41.2926 23.2681C41.1131 23.2973 40.9421 23.365 40.7913 23.4667C40.6406 23.5684 40.5137 23.7015 40.4195 23.857C40.3252 24.0125 40.2659 24.1866 40.2455 24.3673C40.2251 24.548 40.2442 24.731 40.3014 24.9036L41.25 28.5H44.25L45.1987 24.9039C45.2617 24.715 45.279 24.5138 45.249 24.3169C45.219 24.1201 45.1426 23.9331 45.0261 23.7716C44.9096 23.61 44.7564 23.4785 44.5791 23.3878C44.4018 23.2971 44.2055 23.2499 44.0063 23.25Z" fill="#20754D"/>
<path d="M36.75 36.75C38.4069 36.75 39.75 35.4069 39.75 33.75C39.75 32.0931 38.4069 30.75 36.75 30.75C35.0931 30.75 33.75 32.0931 33.75 33.75C33.75 35.4069 35.0931 36.75 36.75 36.75Z" fill="#D9DB5E"/>
<path d="M45.6975 31.3031L45.3797 33L45.0984 34.5L44.3438 38.5266C44.2792 38.8705 44.0965 39.181 43.8272 39.4044C43.5579 39.6279 43.219 39.7501 42.8691 39.75H42.3591C42.0092 39.7501 41.6702 39.6279 41.4009 39.4044C41.1316 39.181 40.9489 38.8705 40.8844 38.5266L39.5663 31.5L39.5297 31.3031C39.4477 30.8697 39.4624 30.4235 39.5728 29.9964C39.6832 29.5694 39.8865 29.1719 40.1682 28.8325C40.45 28.4931 40.8032 28.2201 41.2027 28.0329C41.6021 27.8458 42.038 27.7492 42.4791 27.75H42.7491C43.1899 27.75 43.6253 27.8472 44.0243 28.0346C44.4233 28.222 44.7761 28.495 45.0576 28.8342C45.3391 29.1735 45.5424 29.5706 45.653 29.9973C45.7636 30.424 45.7788 30.8699 45.6975 31.3031Z" fill="#F78A25"/>
<path d="M42.6141 30.75C42.6141 30.9489 42.5351 31.1397 42.3944 31.2803C42.2537 31.421 42.063 31.5 41.8641 31.5H39.5663L39.5297 31.3031C39.4479 30.8709 39.4623 30.426 39.5719 30H41.8641C42.063 30 42.2537 30.079 42.3944 30.2197C42.5351 30.3603 42.6141 30.5511 42.6141 30.75Z" fill="#C76F1E"/>
<path d="M45.3796 33L45.0984 34.5H42.614C42.4151 34.5 42.2243 34.421 42.0837 34.2803C41.943 34.1397 41.864 33.9489 41.864 33.75C41.864 33.5511 41.943 33.3603 42.0837 33.2197C42.2243 33.079 42.4151 33 42.614 33H45.3796Z" fill="#C76F1E"/>
<path d="M6.75 21C6.75 21 5.25 25.6299 2.25 24.0866C2.25 24.0866 4.5 29.4882 12.75 27.1733V21H6.75Z" fill="#95573A"/>
<path d="M26.25 21C26.25 21 27.75 25.6299 30.75 24.0866C30.75 24.0866 28.5 29.4882 20.25 27.1733V21H26.25Z" fill="#95573A"/>
<path d="M5.25 38.25H27.75V45.75H5.25V38.25Z" fill="#A36F58"/>
<path d="M24.75 27.75H27.75V38.25H24.75V27.75Z" fill="#A36F58"/>
<path d="M5.25 27.75H8.25V38.25H5.25V27.75Z" fill="#A36F58"/>
<path d="M17.25 27.75L11.25 32.25V27.75H17.25Z" fill="#F7B030"/>
<path d="M15.75 27.75L21.75 32.25V27.75H15.75Z" fill="#F7B030"/>
<path d="M6.75 22.5C8.40685 22.5 9.75 21.1569 9.75 19.5C9.75 17.8431 8.40685 16.5 6.75 16.5C5.09315 16.5 3.75 17.8431 3.75 19.5C3.75 21.1569 5.09315 22.5 6.75 22.5Z" fill="#F0C6A4"/>
<path d="M26.25 22.5C27.9069 22.5 29.25 21.1569 29.25 19.5C29.25 17.8431 27.9069 16.5 26.25 16.5C24.5931 16.5 23.25 17.8431 23.25 19.5C23.25 21.1569 24.5931 22.5 26.25 22.5Z" fill="#F0C6A4"/>
<path d="M26.25 17.25C26.25 11.8652 21.8848 7.5 16.5 7.5C11.1152 7.5 6.75 11.8652 6.75 17.25V18.75C6.75 24.1348 11.1152 28.5 16.5 28.5C21.8848 28.5 26.25 24.1348 26.25 18.75V17.25Z" fill="#F7CCA9"/>
<path d="M20.25 19.5C20.6642 19.5 21 19.1642 21 18.75C21 18.3358 20.6642 18 20.25 18C19.8358 18 19.5 18.3358 19.5 18.75C19.5 19.1642 19.8358 19.5 20.25 19.5Z" fill="#452D23"/>
<path d="M12.7503 19.5C13.1645 19.5 13.5003 19.1642 13.5003 18.75C13.5003 18.3358 13.1645 18 12.7503 18C12.3361 18 12.0003 18.3358 12.0003 18.75C12.0003 19.1642 12.3361 19.5 12.7503 19.5Z" fill="#452D23"/>
<path d="M16.5 24.75C13.2251 24.75 12.1038 22.1492 12.0576 22.0385C11.9811 21.8549 11.9807 21.6484 12.0564 21.4645C12.1322 21.2805 12.2779 21.1342 12.4615 21.0577C12.6451 20.9812 12.8516 20.9808 13.0356 21.0565C13.2195 21.1322 13.3658 21.2779 13.4423 21.4616C13.4718 21.5294 14.2472 23.25 16.5 23.25C18.7861 23.25 19.5502 21.4795 19.5576 21.4616C19.5955 21.3706 19.6509 21.2881 19.7207 21.2186C19.7905 21.1491 19.8733 21.094 19.9644 21.0565C20.0555 21.019 20.153 20.9998 20.2515 21C20.35 21.0002 20.4475 21.0198 20.5384 21.0577C20.6294 21.0956 20.7119 21.151 20.7814 21.2208C20.8509 21.2906 20.906 21.3734 20.9435 21.4645C20.981 21.5555 21.0002 21.6531 21 21.7516C20.9998 21.8501 20.9802 21.9476 20.9423 22.0385C20.8962 22.1492 19.7749 24.75 16.5 24.75Z" fill="#452D23"/>
<path d="M17.25 21H15.75C15.5511 21 15.3603 20.921 15.2197 20.7803C15.079 20.6397 15 20.4489 15 20.25V18.75C15 18.5511 15.079 18.3603 15.2197 18.2197C15.3603 18.079 15.5511 18 15.75 18C15.9489 18 16.1397 18.079 16.2803 18.2197C16.421 18.3603 16.5 18.5511 16.5 18.75V19.5H17.25C17.4489 19.5 17.6397 19.579 17.7803 19.7197C17.921 19.8603 18 20.0511 18 20.25C18 20.4489 17.921 20.6397 17.7803 20.7803C17.6397 20.921 17.4489 21 17.25 21Z" fill="#452D23"/>
<path d="M12 42.75H21V45.75H12V42.75Z" fill="#D49073"/>
<path d="M26.25 12.75H6.75L8.02603 3.81759C8.15625 2.90981 8.77697 2.25 9.50184 2.25H23.4982C24.223 2.25 24.8442 2.90981 24.974 3.81759L26.25 12.75Z" fill="#D49073"/>
<path d="M26.25 12.75H6.75L7.17844 9.75H25.8216L26.25 12.75Z" fill="#D13330"/>
<path d="M6.84234 12.75H26.1577C26.8267 12.75 27.4766 12.9736 28.0039 13.3854C28.5313 13.7971 28.9059 14.3733 29.0681 15.0224L29.25 15.75H3.75L3.93187 15.0224C4.09414 14.3733 4.46873 13.7971 4.99608 13.3854C5.52343 12.9736 6.17329 12.75 6.84234 12.75Z" fill="#D49073"/>
<path d="M30.75 36.75C32.4069 36.75 33.75 35.4069 33.75 33.75C33.75 32.0931 32.4069 30.75 30.75 30.75C29.0931 30.75 27.75 32.0931 27.75 33.75C27.75 35.4069 29.0931 36.75 30.75 36.75Z" fill="#764F85"/>
<path d="M27.75 39C29.4069 39 30.75 37.6569 30.75 36C30.75 34.3431 29.4069 33 27.75 33C26.0931 33 24.75 34.3431 24.75 36C24.75 37.6569 26.0931 39 27.75 39Z" fill="#FFB632"/>
<path d="M33.75 39C35.4069 39 36.75 37.6569 36.75 36C36.75 34.3431 35.4069 33 33.75 33C32.0931 33 30.75 34.3431 30.75 36C30.75 37.6569 32.0931 39 33.75 39Z" fill="#FA730A"/>
<path d="M39.75 39C41.4069 39 42.75 37.6569 42.75 36C42.75 34.3431 41.4069 33 39.75 33C38.0931 33 36.75 34.3431 36.75 36C36.75 37.6569 38.0931 39 39.75 39Z" fill="#D13330"/>
<path d="M44.25 45.75H26.25L24.75 36.75H45.75L44.25 45.75Z" fill="#B37A60"/>
<path d="M45.2503 39.75L44.25 45.75H26.25L25.2497 39.75H45.2503Z" fill="#95573A"/>
</svg>
