<svg width="48" height="48" viewBox="0 0 48 48" fill="none" xmlns="http://www.w3.org/2000/svg">
<path d="M35.5334 33.0058L31.7419 31.7419H16.2581L12.4665 33.0058C10.5697 33.638 9.29028 35.4132 9.29028 37.4126V46.4516C9.29028 47.3068 9.98356 48 10.8387 48H37.1613C38.0165 48 38.7097 47.3067 38.7097 46.4516V37.4126C38.7097 35.4132 37.4303 33.6381 35.5334 33.0058Z" fill="#FFDC64"/>
<path d="M17.8063 31.7419H16.2581L14.7096 32.258V43.3549H17.8063V31.7419Z" fill="#A0D755"/>
<path d="M30.1935 31.7419H31.7419L33.2903 32.258V43.3549H30.1935V31.7419Z" fill="#A0D755"/>
<path d="M31.7414 31.7419H30.1931V43.3548H31.7414V31.7419Z" fill="#8CC355"/>
<path d="M29.7359 0H17.5865C16.8222 0 16.1723 0.557625 16.0561 1.31297L14.7097 10.0645H33.2904L31.2447 1.20019C31.0825 0.497625 30.4569 0 29.7359 0Z" fill="#FFDC64"/>
<path d="M20.2662 6.85003L21.32 0H17.5863C16.8221 0 16.1721 0.557625 16.0559 1.31297L14.7096 10.0645H33.2903L32.7543 7.74197H21.0314C20.5569 7.74197 20.1942 7.31897 20.2662 6.85003Z" fill="#FFC850"/>
<path d="M34.8386 11.6128H13.1611C13.1611 11.6128 11.0484 19.3594 10.853 26.7926C10.8357 27.4537 11.2527 28.045 11.8745 28.2707C13.8002 28.9697 18.2622 30.3938 23.9998 30.9676C29.7375 30.3938 34.1995 28.9696 36.1252 28.2707C36.7468 28.045 37.164 27.4537 37.1467 26.7926C36.9512 19.3594 34.8386 11.6128 34.8386 11.6128Z" fill="#9B735A"/>
<path d="M17.1044 13.9354H30.8956C32.3881 13.9354 33.8565 13.7689 35.2913 13.4477C35.0248 12.2951 34.8388 11.6128 34.8388 11.6128H13.1611C13.1611 11.6128 12.9751 12.2951 12.7086 13.4477C14.1434 13.7689 15.6117 13.9354 17.1044 13.9354Z" fill="#8C5F50"/>
<path d="M35.5327 28.479C34.362 16.7987 25.5483 12.387 25.5483 12.387L13.1612 11.6128C13.1612 11.6128 11.0485 19.3594 10.8531 26.7926C10.8358 27.4537 11.2529 28.045 11.8746 28.2707C13.8003 28.9697 18.2624 30.3938 24 30.9676C29.2186 30.4458 33.3732 29.2224 35.5327 28.479Z" fill="#8C5F50"/>
<path d="M28.6452 24H19.3546V33.2906H28.6452V24Z" fill="#F5AF73"/>
<path d="M24 29.4193C25.6722 29.4193 27.251 28.9979 28.6451 28.2644V24H19.3547V28.2645C20.749 28.9979 22.3277 29.4193 24 29.4193Z" fill="#F5965F"/>
<path d="M24.387 39.4839H23.6128C23.1852 39.4839 22.8386 39.1373 22.8386 38.7097V32.5161H25.1612V38.7097C25.1612 39.1373 24.8146 39.4839 24.387 39.4839Z" fill="#FFC850"/>
<path d="M33.2903 15.484H32.5161C31.661 15.484 30.9677 14.7907 30.9677 13.9356V12.3872H15.4838V19.355C15.4838 24.0583 19.2966 27.8711 23.9999 27.8711C28.5194 27.8711 32.2064 24.3478 32.4885 19.8996C32.8036 20.0916 33.1874 20.1822 33.6013 20.0972C34.3417 19.9451 34.8386 19.2369 34.8386 18.4811V17.0325C34.8386 16.1771 34.1454 15.484 33.2903 15.484Z" fill="#F5C882"/>
<path d="M23.9999 13.9354H30.9677V11.6128H15.4838V19.3548C15.4926 19.3496 15.5026 19.9046 15.5112 19.8993C15.7934 24.3476 19.4803 27.8708 23.9998 27.8708C24.532 27.8708 25.0512 27.818 25.5561 27.7247C21.5892 26.9988 18.5805 23.5312 18.5805 19.3548C18.5806 16.3617 21.007 13.9354 23.9999 13.9354Z" fill="#F5AF73"/>
<path d="M20.129 17.8065C19.7011 17.8065 19.3549 17.4598 19.3549 17.0323V16.2581C19.3549 15.8306 19.7012 15.4839 20.129 15.4839C20.5569 15.4839 20.9032 15.8306 20.9032 16.2581V17.0323C20.9031 17.4599 20.5568 17.8065 20.129 17.8065Z" fill="#784B41"/>
<path d="M27.8708 17.8065C27.4428 17.8065 27.0966 17.4598 27.0966 17.0323V16.2581C27.0966 15.8306 27.4429 15.4839 27.8708 15.4839C28.2987 15.4839 28.645 15.8306 28.645 16.2581V17.0323C28.645 17.4599 28.2988 17.8065 27.8708 17.8065Z" fill="#784B41"/>
<path d="M21.3224 20.9033C20.7192 20.9033 20.3523 21.5602 20.6569 22.0809C21.3284 23.2289 22.5739 24.0001 23.9999 24.0001C25.426 24.0001 26.6715 23.2289 27.343 22.0809C27.6476 21.5602 27.2807 20.9033 26.6774 20.9033H21.3224Z" fill="white"/>
<path d="M19.8116 29.5246L24 32.5163L21.2112 34.7473C20.5951 35.2402 19.707 35.191 19.1491 34.6331L16.2581 31.7422L17.673 29.8556C18.1776 29.1826 19.1271 29.0357 19.8116 29.5246Z" fill="#FFF082"/>
<path d="M28.1884 29.5243L23.9999 32.516L26.7887 34.7471C27.4048 35.24 28.2929 35.1908 28.8508 34.6329L31.7419 31.7419L30.327 29.8553C29.8224 29.1824 28.8728 29.0355 28.1884 29.5243Z" fill="#FFF082"/>
<path d="M23.2258 11.6128H13.1612C13.1612 11.6128 11.0487 19.3587 10.8531 26.7916C10.8357 27.452 11.2508 28.0434 11.8719 28.2688C12.0493 28.3332 12.2481 28.4037 12.4671 28.4791C13.6379 16.7988 23.2258 11.6128 23.2258 11.6128Z" fill="#9B735A"/>
<path d="M12.7087 13.4477C14.1434 13.7689 15.6117 13.9354 17.1043 13.9354H20.057C21.8391 12.3646 23.2257 11.6128 23.2257 11.6128H13.1612C13.1612 11.6128 12.9752 12.2951 12.7087 13.4477Z" fill="#8C5F50"/>
<path d="M30.8955 12.387H17.1044C14.5046 12.387 11.9338 11.8415 9.55809 10.7856L7.86046 10.0311C7.47843 9.86131 7.59956 9.29028 8.01768 9.29028H39.9824C40.4005 9.29028 40.5216 9.86131 40.1396 10.0311L38.442 10.7856C36.0662 11.8415 33.4953 12.387 30.8955 12.387Z" fill="#E1A546"/>
<path d="M14.7096 32.2581L12.4665 33.0057C10.5697 33.638 9.29028 35.413 9.29028 37.4125V46.4515C9.29028 47.3066 9.98356 47.9999 10.8387 47.9999H14.7096V32.2581Z" fill="#FFC850"/>
<path d="M33.2903 32.2581L35.5333 33.0057C37.4302 33.638 38.7096 35.413 38.7096 37.4125V46.4515C38.7096 47.3066 38.0163 47.9999 37.1612 47.9999H33.2903V32.2581Z" fill="#FFC850"/>
<path d="M14.7096 48H13.1612V40.2581C13.1612 39.8305 13.5078 39.4839 13.9354 39.4839C14.363 39.4839 14.7096 39.8305 14.7096 40.2581V48Z" fill="#E1A546"/>
<path d="M34.8386 48H33.2902V40.2581C33.2902 39.8305 33.6368 39.4839 34.0644 39.4839C34.492 39.4839 34.8386 39.8305 34.8386 40.2581V48Z" fill="#E1A546"/>
<path d="M14.7096 43.3549H16.2581V31.7419L14.7096 32.258V43.3549Z" fill="#8CC355"/>
<path d="M31.7419 41.8064H16.258C15.4028 41.8064 14.7097 42.4997 14.7097 43.3548V48H33.2904V43.3549C33.2903 42.4997 32.597 41.8064 31.7419 41.8064Z" fill="#B4E66E"/>
<path d="M17.8068 46.0648C18.4481 46.0648 18.9681 45.5448 18.9681 44.9035C18.9681 44.2621 18.4481 43.7422 17.8068 43.7422C17.1654 43.7422 16.6455 44.2621 16.6455 44.9035C16.6455 45.5448 17.1654 46.0648 17.8068 46.0648Z" fill="#FFF082"/>
<path d="M30.193 46.0648C30.8344 46.0648 31.3543 45.5448 31.3543 44.9035C31.3543 44.2621 30.8344 43.7422 30.193 43.7422C29.5517 43.7422 29.0317 44.2621 29.0317 44.9035C29.0317 45.5448 29.5517 46.0648 30.193 46.0648Z" fill="#FFF082"/>
</svg>
