<svg width="48" height="48" viewBox="0 0 48 48" fill="none" xmlns="http://www.w3.org/2000/svg">
<g clip-path="url(#clip0)">
<path d="M20.3651 24.6863H33.2279V32.7255H20.3651V24.6863Z" fill="#4398D1"/>
<path d="M34.0318 11.0194H19.5612V4.97307C19.5612 2.924 20.1833 1.76129 21.2196 1.07081C21.7107 0.743041 22.2878 0.568359 22.8781 0.568359H23.4795C24.0699 0.568359 24.6469 0.743041 25.138 1.07081C26.1425 1.7397 27.4505 1.7397 28.455 1.07081C28.9461 0.743041 29.5231 0.568359 30.1135 0.568359H30.7148C31.3052 0.568359 31.8823 0.743041 32.3733 1.07081C33.4096 1.76129 34.0318 2.924 34.0318 4.97307V11.0194Z" fill="#995023"/>
<path d="M32.3733 1.07081C31.8822 0.743041 31.3052 0.568359 30.7148 0.568359H30.1134C29.6604 0.569144 29.2133 0.673168 28.8063 0.872187C28.928 0.930283 29.0453 0.996623 29.1576 1.07081C30.1939 1.76129 30.8161 2.924 30.8161 4.97307V11.0194H34.0318V4.97307C34.0318 2.924 33.4096 1.76129 32.3733 1.07081Z" fill="#8F4B21"/>
<path d="M19.5611 15.843H17.9533C16.1774 15.843 14.7375 14.4032 14.7375 12.6273C14.7375 10.8515 16.1774 9.41162 17.9533 9.41162H35.6396C37.4155 9.41162 38.8553 10.8515 38.8553 12.6273C38.8553 14.4032 37.4155 15.843 35.6396 15.843H34.0318" fill="#7A3E1A"/>
<path d="M19.5612 6.99976H34.0318V9.41153H19.5612V6.99976Z" fill="#E3E3E1"/>
<path d="M30.8161 6.99976H34.0318V9.41153H30.8161V6.99976Z" fill="#DBDBD9"/>
<path d="M19.5612 11.0193V17.4507C19.5612 21.4468 22.8004 24.686 26.7965 24.686C30.7926 24.686 34.0318 21.4468 34.0318 17.4507V11.0193H19.5612Z" fill="#FEC9A3"/>
<path d="M19.5612 11.0193H34.0318V12.6271H19.5612V11.0193Z" fill="#FEC093"/>
<path d="M30.8161 11.0193V17.4507C30.8137 20.8254 28.4789 23.7502 25.1886 24.5004C27.335 24.9969 29.591 24.4854 31.3134 23.1123C33.0363 21.7388 34.0373 19.654 34.0318 17.4507V11.0193H30.8161Z" fill="#FEC093"/>
<path d="M23.1788 14.2353C22.5126 14.2353 21.9729 13.6955 21.9729 13.0294C21.9729 12.3632 22.5126 11.8235 23.1788 11.8235C23.8449 11.8235 24.3847 12.3632 24.3847 13.0294C24.3847 13.6955 23.8449 14.2353 23.1788 14.2353Z" fill="#7A3E1A"/>
<path d="M30.4141 14.2353C29.748 14.2353 29.2083 13.6955 29.2083 13.0294C29.2083 12.3632 29.748 11.8235 30.4141 11.8235C31.0803 11.8235 31.62 12.3632 31.62 13.0294C31.62 13.6955 31.0803 14.2353 30.4141 14.2353Z" fill="#7A3E1A"/>
<path d="M11.5219 40.7646V47.1961C14.6301 47.1961 17.1494 44.6763 17.1494 41.5686V40.7646H11.5219Z" fill="#FEB784"/>
<path d="M11.5219 40.7646H17.1494V42.3725H11.5219V40.7646Z" fill="#F4A876"/>
<path d="M36.4436 48.0001V40.7648H42.0711V30.3138C42.0711 27.2056 39.5518 24.6863 36.4436 24.6863H17.1494C14.0412 24.6863 11.5219 27.2056 11.5219 30.3138V40.7648H17.1494V48.0001" fill="#D13E37"/>
<path d="M17.1494 27.9019H20.3651V31.1176H17.1494V27.9019Z" fill="#D13E37"/>
<path d="M23.5808 27.9019H26.7965V31.1176H23.5808V27.9019Z" fill="#D13E37"/>
<path d="M36.4436 27.9019H39.6593V31.1176H36.4436V27.9019Z" fill="#D13E37"/>
<path d="M30.0122 27.9019H33.2279V31.1176H30.0122V27.9019Z" fill="#D13E37"/>
<path d="M17.1494 34.3335H20.3651V37.5492H17.1494V34.3335Z" fill="#D13E37"/>
<path d="M23.5808 34.3335H26.7965V37.5492H23.5808V34.3335Z" fill="#D13E37"/>
<path d="M36.4436 34.3335H39.6593V37.5492H36.4436V34.3335Z" fill="#D13E37"/>
<path d="M30.0122 34.3335H33.2279V37.5492H30.0122V34.3335Z" fill="#D13E37"/>
<path d="M13.9337 27.9019H12.0711C11.7103 28.6548 11.5227 29.4787 11.5219 30.3136V31.1176H13.9337V27.9019Z" fill="#D13E37"/>
<path d="M23.5807 24.6863H26.7965V27.902H23.5807V24.6863Z" fill="#DD4A43"/>
<path d="M17.1494 24.6863H20.3651V27.902H17.1494V24.6863Z" fill="#DD4A43"/>
<path d="M30.0121 24.6863H33.2279V27.902H30.0121V24.6863Z" fill="#DD4A43"/>
<path d="M13.9337 25.699C13.1321 26.2591 12.4903 27.0183 12.071 27.9019H13.9337V25.699Z" fill="#DD4A43"/>
<path d="M39.6592 27.902V25.699C38.7167 25.0392 37.5941 24.6855 36.4435 24.6863V27.902H39.6592Z" fill="#DD4A43"/>
<path d="M11.5219 31.1174H13.9337V34.3331H11.5219V31.1174Z" fill="#DD4A43"/>
<path d="M30.0121 31.1174H33.2279V34.3331H30.0121V31.1174Z" fill="#DD4A43"/>
<path d="M23.5807 31.1174H26.7965V34.3331H23.5807V31.1174Z" fill="#DD4A43"/>
<path d="M17.1494 31.1174H20.3651V34.3331H17.1494V31.1174Z" fill="#DD4A43"/>
<path d="M26.7964 31.1174H30.0121V34.3331H26.7964V31.1174Z" fill="#C43A34"/>
<path d="M26.7964 24.6863H30.0121V27.902H26.7964V24.6863Z" fill="#C43A34"/>
<path d="M26.7964 34.3333H30.0121V37.549H26.7964V34.3333Z" fill="#B53630"/>
<path d="M26.7964 27.9019H30.0121V31.1176H26.7964V27.9019Z" fill="#B53630"/>
<path d="M33.2279 31.1174H36.4436V34.3331H33.2279V31.1174Z" fill="#C43A34"/>
<path d="M33.2279 24.6863H36.4436V27.902H33.2279V24.6863Z" fill="#C43A34"/>
<path d="M33.2279 34.3333H36.4436V37.549H33.2279V34.3333Z" fill="#B53630"/>
<path d="M33.2279 27.9019H36.4436V31.1176H33.2279V27.9019Z" fill="#B53630"/>
<path d="M39.6592 31.1174H42.071V34.3331H39.6592V31.1174Z" fill="#C43A34"/>
<path d="M39.6592 25.699V27.9019H41.5219C41.1026 27.0183 40.4608 26.2591 39.6592 25.699Z" fill="#C43A34"/>
<path d="M39.6592 34.3333H42.071V37.549H39.6592V34.3333Z" fill="#B53630"/>
<path d="M39.6592 31.1176H42.071V30.3136C42.0702 29.4787 41.8826 28.6548 41.5219 27.9019H39.6592V31.1176Z" fill="#B53630"/>
<path d="M20.3651 31.1174H23.5808V34.3331H20.3651V31.1174Z" fill="#C43A34"/>
<path d="M20.3651 24.6863H23.5808V27.902H20.3651V24.6863Z" fill="#C43A34"/>
<path d="M20.3651 34.3333H23.5808V37.549H20.3651V34.3333Z" fill="#B53630"/>
<path d="M20.3651 27.9019H23.5808V31.1176H20.3651V27.9019Z" fill="#B53630"/>
<path d="M13.9337 31.1174H17.1494V34.3331H13.9337V31.1174Z" fill="#C43A34"/>
<path d="M13.9337 34.3333H17.1494V37.549H13.9337V34.3333Z" fill="#B53630"/>
<path d="M13.9337 27.9019H17.1494V31.1176H13.9337V27.9019Z" fill="#B53630"/>
<path d="M13.9337 27.902H17.1494V24.6863C15.9988 24.6855 14.8761 25.0392 13.9337 25.699V27.902Z" fill="#C43A34"/>
<path d="M36.4435 31.1174H39.6592V34.3331H36.4435V31.1174Z" fill="#DD4A43"/>
<path d="M11.5219 34.3333H13.9337V37.549H11.5219V34.3333Z" fill="#D13E37"/>
<path d="M21.9729 24.6863L26.7965 32.7255L31.62 24.6863H21.9729Z" fill="#4398D1"/>
<path d="M43.6789 40.7648H36.4435V37.5491H43.6789V40.7648Z" fill="#DD4A43"/>
<path d="M36.4435 48V40.7646H42.071V48" fill="#FEB784"/>
<path d="M17.1494 24.6863H20.3651V32.7255H17.1494V24.6863Z" fill="#7A3E1A"/>
<path d="M33.2279 24.6863H36.4436V32.7255H33.2279V24.6863Z" fill="#7A3E1A"/>
<path d="M17.1494 32.7256V48.0002H36.4436V32.7256H17.1494Z" fill="#995023"/>
<path d="M17.1494 45.5883V48.0001H36.4436V33.8003C31.2726 41.3332 22.7655 44.3754 17.1494 45.5883Z" fill="#8F4B21"/>
<path d="M19.5612 35.1372H21.169V36.7451H19.5612V35.1372Z" fill="#7A3E1A"/>
<path d="M32.424 35.1372H34.0318V36.7451H32.424V35.1372Z" fill="#7A3E1A"/>
<path d="M31.62 47.9999H21.9729L20.3651 46.3921V39.1567H33.2279V46.3921L31.62 47.9999Z" fill="#7A3E1A"/>
<path d="M26.7965 15.843C29.4606 15.843 31.62 18.0024 31.62 20.6666V23.8823C31.62 26.5461 29.4606 28.7058 26.7965 28.7058C24.1327 28.7058 21.9729 26.5461 21.9729 23.8823V20.6666C21.9729 18.0024 24.1327 15.843 26.7965 15.843Z" fill="#DBDBD9"/>
<path d="M26.7965 15.843C29.4606 15.843 31.62 18.0024 31.62 20.6666V23.8823C31.62 26.5461 29.4606 28.7058 26.7965 28.7058C24.1327 28.7058 21.9729 26.5461 21.9729 23.8823V20.6666C21.9729 18.0024 24.1327 15.843 26.7965 15.843Z" fill="#E3E3E1"/>
<path d="M34.8357 17.4508H34.0318V12.6272H34.8357C36.1676 12.6272 37.2475 13.7071 37.2475 15.039C37.2475 16.3709 36.1676 17.4508 34.8357 17.4508Z" fill="#FEB784"/>
<path d="M18.7572 12.6272H19.5612V17.4508H18.7572C17.4253 17.4508 16.3455 16.3709 16.3455 15.039C16.3455 13.7071 17.4253 12.6272 18.7572 12.6272Z" fill="#FEB784"/>
<path d="M8.30615 17.4509H11.5219V36.7452H8.30615V17.4509Z" fill="#995023"/>
<path d="M8.30615 44.7844H11.5219V48.0001H8.30615V44.7844Z" fill="#995023"/>
<path d="M15.777 0C14.5927 1.17763 13.9289 2.78037 13.9336 4.45064V11.0194C13.9293 12.0377 13.2859 12.9437 12.3258 13.2832V4.45064C12.3223 3.20707 12.8165 2.01374 13.6981 1.1368L12.5613 0C11.377 1.17763 10.7132 2.78037 10.7179 4.45064V13.4312H9.11008V4.45064C9.10655 3.20707 9.60076 2.01374 10.4824 1.1368L9.34561 0C8.16131 1.17763 7.49752 2.78037 7.50223 4.45064V13.2832C6.54207 12.9437 5.89869 12.0377 5.89438 11.0194V4.45064C5.89084 3.20707 6.38505 2.01374 7.2667 1.1368L6.1299 0C4.9456 1.17763 4.28181 2.78037 4.28652 4.45064V11.0194C4.28927 13.2385 6.08711 15.0363 8.30615 15.0391V17.4508H11.5219V15.0391C13.7409 15.0363 15.5387 13.2385 15.5415 11.0194V4.45064C15.538 3.20707 16.0322 2.01374 16.9138 1.1368L15.777 0Z" fill="#DBDBD9"/>
<path d="M6.6983 36.7451H11.5219C12.4098 36.7451 13.1297 37.465 13.1297 38.353V43.1765C13.1297 44.0644 12.4098 44.7844 11.5219 44.7844H6.6983V36.7451Z" fill="#FEC9A3"/>
<path d="M26.7965 20.6666C25.9576 20.6313 25.1698 20.2537 24.6171 19.6217L25.7601 18.4958C25.9882 18.8468 26.378 19.0588 26.7965 19.0588C27.2149 19.0588 27.6047 18.8468 27.8328 18.4958L28.9759 19.6217C28.4232 20.2537 27.6353 20.6313 26.7965 20.6666Z" fill="#995023"/>
<path d="M36.4435 40.7646H42.071V42.3725H36.4435V40.7646Z" fill="#F4A876"/>
<path d="M22.2697 25.5338C23.0759 27.725 25.3358 29.0243 27.6353 28.6184C29.9348 28.2121 31.6133 26.2172 31.62 23.8824V20.6667C31.6192 19.9644 31.4646 19.2708 31.1666 18.6353C29.2082 23.0784 25.9925 24.6863 22.2697 25.5338Z" fill="#DBDBD9"/>
</g>
<defs>
<clipPath id="clip0">
<rect width="48" height="48" fill="white"/>
</clipPath>
</defs>
</svg>
