<svg width="48" height="48" viewBox="0 0 48 48" fill="none" xmlns="http://www.w3.org/2000/svg">
<path d="M9.82725 19.377C7.7565 19.377 3.75 18.5708 3.75 16.5C3.75 14.4293 5.42925 12.75 7.5 12.75L14.2635 14.3415C18.201 15.2678 22.299 15.2678 26.2365 14.3415L33 12.75C35.0707 12.75 36.75 14.4293 36.75 16.5C36.75 18.5708 31.9875 19.377 29.916 19.377" fill="#4A3B1C"/>
<path d="M26.25 30.75L23.25 36.75V46.5H34.5L33 33L29.25 31.5L26.25 29.25V30.75Z" fill="#1A326E"/>
<path d="M27.9367 40.656C29.361 38.1173 30.3217 34.4093 30.8197 32.1278L29.25 31.5L26.25 29.25V30.75L23.25 36.75V38.25L26.8313 40.8953C27.1965 41.1653 27.714 41.0528 27.9367 40.656Z" fill="#162A5C"/>
<path d="M14.25 30.75L17.25 36.75V46.5H6L7.5 33L11.25 31.5L14.25 29.25V30.75Z" fill="#1A326E"/>
<path d="M14.25 30.75L17.25 36.75L13.5 38.3843C12 36.1343 11.25 31.5675 11.25 31.5675L14.25 29.25V30.75Z" fill="#1A326E"/>
<path d="M26.25 30.75L23.25 36.75L27 38.3843C28.5 36.1343 29.25 31.5675 29.25 31.5675L26.25 29.25V30.75Z" fill="#1A326E"/>
<path d="M26.2365 14.3416C22.299 15.2678 18.201 15.2678 14.2635 14.3416L12 13.8091V18.7501C12 22.2466 14.1788 25.2278 17.25 26.4293C18.1807 26.7931 19.1902 27.0001 20.25 27.0001C21.3097 27.0001 22.3193 26.7931 23.25 26.4293C26.3212 25.2286 28.5 22.2473 28.5 18.7501V13.8091L26.2365 14.3416Z" fill="#FCE0B9"/>
<path d="M30 10.3568L28.9545 7.839L27.3757 4.0365C27.1567 2.9955 26.238 2.25 25.1745 2.25H15.3278C14.2628 2.25 13.3432 2.997 13.1257 4.03875L10.5 10.3275L7.5 12.75L8.7225 13.038L12 13.809L14.2635 14.3415C18.201 15.2677 22.299 15.2677 26.2365 14.3415L28.5 13.809L31.0387 13.212L33 12.75L30 10.3568Z" fill="#806631"/>
<path d="M37.5 24.75H36.75H35.1765C33.393 24.75 32.0033 26.2965 32.1938 28.0695L32.6348 32.1832L33.873 43.7393C33.9953 44.8823 34.9605 45.7493 36.1103 45.7493H36.567C37.7168 45.7493 38.682 44.8823 38.8043 43.7393L40.4835 28.0695C40.6725 26.2965 39.2828 24.75 37.5 24.75Z" fill="#FCA947"/>
<path d="M34.8848 34.4332L34.4438 30.3195C34.254 28.5465 35.6438 27 37.4265 27H39H39.75C39.9765 27 40.1955 27.0255 40.407 27.0728C40.0995 25.7573 38.9348 24.75 37.5 24.75H36.75H35.1765C33.393 24.75 32.0033 26.2965 32.1938 28.0695L32.6348 32.1832L33.873 43.7393C33.9953 44.8778 34.953 45.7418 36.0975 45.7485L34.8848 34.4332Z" fill="#F98600"/>
<path d="M17.25 37.5H23.25V46.5H17.25V37.5Z" fill="#D0382A"/>
<path d="M23.25 26.4292C22.3193 26.7929 21.3098 27 20.25 27C19.1902 27 18.1808 26.7929 17.25 26.4292V29.25H14.25V30.75L17.25 36.75V37.5H23.25V36.75L26.25 30.75V29.25H23.25V26.4292Z" fill="#FCE0B9"/>
<path d="M14.2635 14.3416L12 13.8091V17.7586C14.3678 18.3841 17.2005 18.7501 20.25 18.7501C23.2995 18.7501 26.1322 18.3841 28.5 17.7586V13.8091L26.2365 14.3416C22.299 15.2678 18.201 15.2678 14.2635 14.3416Z" fill="#FAD3AC"/>
<path d="M13.8277 3.714H23.6745C24.7387 3.714 25.6567 4.4595 25.8765 5.5005L27.4552 9.303L28.5 11.8208L30.4245 13.356L31.0387 13.2113L33 12.75L30 10.3568L28.9545 7.839L27.3757 4.0365C27.1567 2.9955 26.238 2.25 25.1745 2.25H15.3277C14.343 2.25 13.4902 2.892 13.194 3.81225C13.3965 3.753 13.608 3.714 13.8277 3.714Z" fill="#5E4B24"/>
<path d="M16.5 21C16.9142 21 17.25 20.4963 17.25 19.875C17.25 19.2537 16.9142 18.75 16.5 18.75C16.0858 18.75 15.75 19.2537 15.75 19.875C15.75 20.4963 16.0858 21 16.5 21Z" fill="#5E4C2D"/>
<path d="M24 21C24.4142 21 24.75 20.4963 24.75 19.875C24.75 19.2537 24.4142 18.75 24 18.75C23.5858 18.75 23.25 19.2537 23.25 19.875C23.25 20.4963 23.5858 21 24 21Z" fill="#5E4C2D"/>
<path d="M16.875 20.25C17.0821 20.25 17.25 20.0821 17.25 19.875C17.25 19.6679 17.0821 19.5 16.875 19.5C16.6679 19.5 16.5 19.6679 16.5 19.875C16.5 20.0821 16.6679 20.25 16.875 20.25Z" fill="white"/>
<path d="M24.375 20.25C24.5821 20.25 24.75 20.0821 24.75 19.875C24.75 19.6679 24.5821 19.5 24.375 19.5C24.1679 19.5 24 19.6679 24 19.875C24 20.0821 24.1679 20.25 24.375 20.25Z" fill="white"/>
<path d="M20.25 25.5C21.4927 25.5 22.5 24.4927 22.5 23.25H18C18 24.4927 19.0073 25.5 20.25 25.5Z" fill="#FF9575"/>
<path d="M22.362 24C22.446 23.7645 22.5 23.5148 22.5 23.25H18C18 23.5148 18.054 23.7645 18.138 24H22.362Z" fill="white"/>
<path d="M21 15.7498C21.4433 15.4843 21.8303 15.2181 22.1745 14.9563C19.5285 15.1513 16.8615 14.9526 14.2635 14.3413L12 13.8088L11.052 13.5861L8.72325 13.0378C8.622 14.4883 8.78175 15.9763 9.22725 17.4253L11.2238 23.9136H7.5C6.25725 23.9136 5.25 24.9208 5.25 26.1636C5.25 26.1786 5.25375 26.1921 5.2545 26.2071C5.25375 26.2213 5.25 26.2348 5.25 26.2498C5.25 27.2886 5.958 28.1548 6.915 28.4136H6.75C4.2645 28.4136 2.25 30.4281 2.25 32.9136C2.25 35.2768 4.0725 37.2111 6.3885 37.3956C6.3885 37.3948 7.5 41.9998 10.5 41.9998H12C15 42.0861 17.25 40.4998 17.25 37.4136C17.25 34.9281 14.4855 32.9136 12 32.9136L11.25 32.9998V31.4998L14.25 29.2498H17.25V26.4291C14.1788 25.2283 12 22.2471 12 18.7498V17.9421C14.2043 17.8056 18.3473 17.3413 21 15.7498Z" fill="#2B2210"/>
<path d="M31.107 13.9402L31.038 13.2112L28.5 13.8089L26.2365 14.3414C25.9447 14.4104 25.6507 14.4629 25.3575 14.5214C25.6897 15.4634 26.2012 16.4512 27 17.2499C27.6045 17.8544 28.0972 18.0179 28.5 17.9452V18.7499C28.5 19.8097 28.2975 20.8199 27.933 21.7499H27.9375C30.204 19.8194 31.3867 16.9042 31.107 13.9402Z" fill="#2B2210"/>
<path d="M7.8885 37.3948C5.5725 37.2103 3.75 35.2768 3.75 32.9136C3.75 30.4281 5.7645 28.4136 8.25 28.4136H8.415C7.458 28.1548 6.75 27.2886 6.75 26.2498C6.75 26.2348 6.75375 26.2213 6.7545 26.2063C6.7545 26.1913 6.75 26.1778 6.75 26.1628C6.75 24.9201 7.75725 23.9128 9 23.9128H7.5C6.25725 23.9128 5.25 24.9201 5.25 26.1628C5.25 26.1778 5.25375 26.1913 5.2545 26.2063C5.25375 26.2213 5.25 26.2348 5.25 26.2498C5.25 27.2886 5.958 28.1548 6.915 28.4136H6.75C4.2645 28.4136 2.25 30.4281 2.25 32.9136C2.25 35.2768 4.0725 37.2111 6.3885 37.3956C6.3885 37.3948 7.5 41.9998 10.5 41.9998H12C9 41.9998 7.8885 37.3948 7.8885 37.3948Z" fill="#3D3017"/>
<path d="M23.25 26.4292C22.3193 26.7929 21.3098 27 20.25 27C19.1903 27 18.1808 26.7929 17.25 26.4292V28.032C18.1988 28.329 19.203 28.5 20.25 28.5C21.297 28.5 22.3012 28.329 23.25 28.0312V26.4292Z" fill="#FAD3AC"/>
<path d="M23.25 46.5H17.25V37.5L17.82 40.3485C18.3953 43.2248 20.4675 45.5723 23.25 46.5Z" fill="#B02F24"/>
<path d="M30 10.3568L29.091 8.16605L23.559 9.14255C21.375 9.52805 19.164 9.5018 16.9905 9.06755L11.4863 7.96655L10.5 10.3276L10.002 10.7303L16.4018 12.0098C17.7503 12.2798 19.1093 12.4148 20.4713 12.4148C21.6758 12.4148 22.8818 12.3091 24.081 12.0976L30.7155 10.9268L30 10.3568Z" fill="#B89246"/>
<path d="M28.5 42H30V46.5H28.5V42Z" fill="#162A5C"/>
<path d="M10.5 42H12V46.5H10.5V42Z" fill="#162A5C"/>
<path d="M46.4903 16.3831C46.4123 15.8896 46.0328 15.5296 45.3623 15.3136C43.8015 14.8081 42.051 15.4479 41.1045 16.8646L37.8765 21.7074C38.0903 20.0506 38.3828 17.9364 38.7203 15.8709L38.8343 15.4689C39.7613 14.3109 44.3408 8.40239 43.4603 5.76314C43.2675 5.18414 42.822 4.81439 42.2693 4.77539C41.2335 4.71239 40.1573 5.75939 39.078 7.91564C38.4998 9.07214 37.8983 11.5959 37.239 15.6301C36.5228 20.0169 36.0083 24.6219 36.0038 24.6684C35.9655 25.0119 36.168 25.3381 36.4928 25.4559C36.5775 25.4851 36.6645 25.5001 36.75 25.5001C36.9953 25.5001 37.2323 25.3794 37.374 25.1664L40.2293 20.8839C42.4103 20.1669 46.818 18.4509 46.4903 16.3831Z" fill="#7FB556"/>
<path d="M35.25 30H34.5C34.086 30 33.75 29.664 33.75 29.25C33.75 28.836 34.086 28.5 34.5 28.5H35.25C35.664 28.5 36 28.836 36 29.25C36 29.664 35.664 30 35.25 30Z" fill="#F98600"/>
<path d="M38.25 33H36.75C36.336 33 36 32.664 36 32.25C36 31.836 36.336 31.5 36.75 31.5H38.25C38.664 31.5 39 31.836 39 32.25C39 32.664 38.664 33 38.25 33Z" fill="#F98600"/>
<path d="M36 37.5H34.5C34.086 37.5 33.75 37.164 33.75 36.75C33.75 36.336 34.086 36 34.5 36H36C36.414 36 36.75 36.336 36.75 36.75C36.75 37.164 36.414 37.5 36 37.5Z" fill="#F98600"/>
<path d="M36.75 40.5C36.336 40.5 36 40.164 36 39.75C36 39.336 36.336 39 36.75 39C37.164 39 37.5 39.336 37.5 39.75C37.5 40.164 37.164 40.5 36.75 40.5Z" fill="#F98600"/>
<path d="M27.1268 8.51325L27.4545 9.303L28.305 11.352L30.714 10.9267L30 10.3567L29.0903 8.16675L27.1268 8.51325Z" fill="#99793A"/>
<path d="M41.1053 16.8645L38.0813 21.4012C38.0078 21.9412 37.9388 22.4587 37.8773 22.935L41.1053 18.0922C42.0518 16.6747 43.8023 16.0357 45.363 16.5412C45.8505 16.6987 46.1798 16.9335 46.3553 17.2387C46.4798 16.9612 46.5368 16.6762 46.491 16.3822C46.413 15.8887 46.0335 15.5287 45.363 15.3127C43.8015 14.808 42.051 15.4477 41.1053 16.8645Z" fill="#618A41"/>
<path d="M37.2397 16.8572C37.899 12.8229 38.5005 10.2992 39.0787 9.14267C40.1572 6.98642 41.2342 5.93942 42.27 6.00242C42.8227 6.04217 43.2682 6.41117 43.461 6.99017C43.482 7.05317 43.4857 7.12667 43.5007 7.19267C43.5915 6.65942 43.5967 6.16892 43.461 5.76167C43.2682 5.18267 42.8227 4.81292 42.27 4.77392C41.2342 4.71092 40.158 5.75792 39.0787 7.91417C38.5005 9.07067 37.899 11.5944 37.2397 15.6287C36.5235 20.0154 36.009 24.6204 36.0045 24.6669C35.9872 24.8229 36.0247 24.9737 36.096 25.1042C36.2745 23.5982 36.6997 20.1669 37.2397 16.8572Z" fill="#8FCC61"/>
</svg>
