<?xml version="1.0" encoding="UTF-8" standalone="no"?>
<svg
   xmlns:dc="http://purl.org/dc/elements/1.1/"
   xmlns:cc="http://creativecommons.org/ns#"
   xmlns:rdf="http://www.w3.org/1999/02/22-rdf-syntax-ns#"
   xmlns:svg="http://www.w3.org/2000/svg"
   xmlns="http://www.w3.org/2000/svg"
   xmlns:sodipodi="http://sodipodi.sourceforge.net/DTD/sodipodi-0.dtd"
   xmlns:inkscape="http://www.inkscape.org/namespaces/inkscape"
   viewBox="0 0 64 64"
   version="1.1"
   id="svg918"
   sodipodi:docname="_cow.svg"
   inkscape:version="1.0.1 (3bc2e813f5, 2020-09-07)">
  <metadata
     id="metadata922">
    <rdf:RDF>
      <cc:Work
         rdf:about="">
        <dc:format>image/svg+xml</dc:format>
        <dc:type
           rdf:resource="http://purl.org/dc/dcmitype/StillImage" />
        <dc:title></dc:title>
      </cc:Work>
    </rdf:RDF>
  </metadata>
  <sodipodi:namedview
     pagecolor="#ffffff"
     bordercolor="#666666"
     borderopacity="1"
     objecttolerance="10"
     gridtolerance="10"
     guidetolerance="10"
     inkscape:pageopacity="0"
     inkscape:pageshadow="2"
     inkscape:window-width="1600"
     inkscape:window-height="837"
     id="namedview920"
     showgrid="false"
     inkscape:zoom="3.7012621"
     inkscape:cx="56.932426"
     inkscape:cy="38.713334"
     inkscape:window-x="-8"
     inkscape:window-y="-8"
     inkscape:window-maximized="1"
     inkscape:current-layer="svg918" />
  <defs
     id="defs891">
    <style
       id="style889">.cls-1{fill:#edcad4;}.cls-2{fill:#9d5b6e;}.cls-3{fill:#aeadb3;}.cls-4{fill:#3e2c27;}.cls-5{fill:#eaeaea;}.cls-6{fill:#2d2d2d;}</style>
  </defs>
  <g
     id="cow"
     transform="matrix(1.2803867,0,0,1.2803867,-8.9627067,-8.9820406)">
    <path
       class="cls-1"
       d="m 51,47.5 v 2 A 7.5,7.5 0 0 1 43.5,57 h -23 A 7.5,7.5 0 0 1 13,49.5 v -2 A 7.52,7.52 0 0 1 20.5,40 h 23 a 7.52,7.52 0 0 1 7.5,7.5 z"
       id="path895" />
    <circle
       class="cls-2"
       cx="23.5"
       cy="48.5"
       r="2.5"
       id="circle897" />
    <circle
       class="cls-2"
       cx="40.5"
       cy="48.5"
       r="2.5"
       id="circle899" />
    <path
       class="cls-3"
       d="m 21.5,16 -0.18,1.07 A 14,14 0 0 0 16.14,26.54 10.84,10.84 0 0 1 13,27 H 7 A 11,11 0 0 1 18,16 Z"
       id="path901" />
    <path
       class="cls-3"
       d="m 21.5,16 -0.18,1.07 A 14,14 0 0 0 16.14,26.54 10.84,10.84 0 0 1 13,27 H 7 A 11,11 0 0 1 18,16 Z"
       id="path903" />
    <path
       class="cls-3"
       d="M 57,27 H 51 A 10.84,10.84 0 0 1 47.86,26.54 14,14 0 0 0 42.68,17.07 L 42.5,16 H 46 a 11,11 0 0 1 11,11 z"
       id="path905" />
    <path
       class="cls-4"
       d="M 28.19,14.13 A 13.9,13.9 0 0 0 22.86,16 13.64,13.64 0 0 0 21.32,17.07 L 21.5,16 22.67,9 a 2.36,2.36 0 0 1 4.66,0 z"
       id="path907" />
    <path
       class="cls-5"
       d="M 47.93,28 V 41.46 A 7.4,7.4 0 0 0 43.5,40 h -23 a 7.4,7.4 0 0 0 -4.43,1.46 V 28 c 0,-0.49 0,-1 0.07,-1.46 A 14,14 0 0 1 21.32,17.07 13.64,13.64 0 0 1 22.86,16 13.9,13.9 0 0 1 28.19,14.13 12.9,12.9 0 0 1 30.07,14 h 3.86 a 12.9,12.9 0 0 1 1.88,0.13 13.9,13.9 0 0 1 5.33,1.87 13.64,13.64 0 0 1 1.54,1.07 14,14 0 0 1 5.18,9.47 C 47.9,27 47.93,27.51 47.93,28 Z"
       id="path909" />
    <circle
       class="cls-6"
       cx="25.5"
       cy="29.5"
       r="1.5"
       id="circle911" />
    <circle
       class="cls-6"
       cx="38.5"
       cy="29.5"
       r="1.5"
       id="circle913" />
    <path
       class="cls-4"
       d="M 42.68,17.07 A 13.64,13.64 0 0 0 41.14,16 13.9,13.9 0 0 0 35.81,14.13 L 36.67,9 a 2.36,2.36 0 0 1 4.66,0 l 1.17,7 z"
       id="path915" />
  </g>
</svg>
