<?xml version="1.0" encoding="UTF-8" standalone="no"?>
<svg
   xmlns:dc="http://purl.org/dc/elements/1.1/"
   xmlns:cc="http://creativecommons.org/ns#"
   xmlns:rdf="http://www.w3.org/1999/02/22-rdf-syntax-ns#"
   xmlns:svg="http://www.w3.org/2000/svg"
   xmlns="http://www.w3.org/2000/svg"
   viewBox="0 0 64 64"
   version="1.1"
   id="svg1533">
  <metadata
     id="metadata1537">
    <rdf:RDF>
      <cc:Work
         rdf:about="">
        <dc:format>image/svg+xml</dc:format>
        <dc:type
           rdf:resource="http://purl.org/dc/dcmitype/StillImage" />
        <dc:title></dc:title>
      </cc:Work>
    </rdf:RDF>
  </metadata>
  <defs
     id="defs1514">
    <style
       id="style1512">.cls-1{fill:#ffab00;}.cls-2{fill:#efc589;}.cls-3{fill:#3e2c27;}.cls-4{fill:#bd7f00;}.cls-5{fill:#2d2d2d;}</style>
  </defs>
  <g
     id="fox"
     transform="matrix(1.28,0,0,1.28,-8.96,-8.96)">
    <path
       class="cls-1"
       d="M 57,35 45.78,28.69 A 7.23,7.23 0 0 0 35,35 V 52.48 A 1.43,1.43 0 0 0 33.61,51 H 30.39 A 1.43,1.43 0 0 0 29,52.48 V 35 A 7.23,7.23 0 0 0 18.22,28.69 L 7,35 15,23 a 20.2,20.2 0 0 1 17,-9 20.2,20.2 0 0 1 17,9 z"
       id="path1518" />
    <path
       class="cls-2"
       d="m 57,35 -4,2.08 a 35.57,35.57 0 0 0 -9.25,6.33 18.37,18.37 0 0 0 -5,9.57 5,5 0 0 1 -4.9,4 H 30.1 a 5,5 0 0 1 -4.9,-4 C 23.57,44.85 18.35,40.9 11,37.08 L 7,35 18.22,28.69 A 7.23,7.23 0 0 1 29,35 V 52.48 A 1.43,1.43 0 0 1 30.39,51 h 3.22 A 1.43,1.43 0 0 1 35,52.48 V 35 a 7.23,7.23 0 0 1 10.78,-6.31 z"
       id="path1520" />
    <path
       class="cls-3"
       d="m 35,52.48 a 1.49,1.49 0 0 1 -0.77,1.33 L 32,55 29.77,53.81 A 1.49,1.49 0 0 1 29,52.48 1.43,1.43 0 0 1 30.39,51 h 3.22 A 1.43,1.43 0 0 1 35,52.48 Z"
       id="path1522" />
    <path
       class="cls-4"
       d="M 21.09,17.09 A 20.12,20.12 0 0 0 15,23 l -0.52,0.78 A 7.69,7.69 0 0 1 11,17.29 V 7 Z"
       id="path1524" />
    <path
       class="cls-4"
       d="m 53,7 v 10.29 a 7.69,7.69 0 0 1 -3.5,6.46 L 49,23 a 20.12,20.12 0 0 0 -6.07,-5.88 z"
       id="path1526" />
    <circle
       class="cls-5"
       cx="23.5"
       cy="35.5"
       r="1.5"
       id="circle1528" />
    <circle
       class="cls-5"
       cx="40.5"
       cy="35.5"
       r="1.5"
       id="circle1530" />
  </g>
</svg>
