<?xml version="1.0" encoding="UTF-8" standalone="no"?>
<svg
   xmlns:dc="http://purl.org/dc/elements/1.1/"
   xmlns:cc="http://creativecommons.org/ns#"
   xmlns:rdf="http://www.w3.org/1999/02/22-rdf-syntax-ns#"
   xmlns:svg="http://www.w3.org/2000/svg"
   xmlns="http://www.w3.org/2000/svg"
   xmlns:sodipodi="http://sodipodi.sourceforge.net/DTD/sodipodi-0.dtd"
   xmlns:inkscape="http://www.inkscape.org/namespaces/inkscape"
   viewBox="0 0 64 64"
   version="1.1"
   id="svg3441"
   sodipodi:docname="_rabbit.svg"
   inkscape:version="1.0.1 (3bc2e813f5, 2020-09-07)">
  <metadata
     id="metadata3445">
    <rdf:RDF>
      <cc:Work
         rdf:about="">
        <dc:format>image/svg+xml</dc:format>
        <dc:type
           rdf:resource="http://purl.org/dc/dcmitype/StillImage" />
        <dc:title></dc:title>
      </cc:Work>
    </rdf:RDF>
  </metadata>
  <sodipodi:namedview
     pagecolor="#ffffff"
     bordercolor="#666666"
     borderopacity="1"
     objecttolerance="10"
     gridtolerance="10"
     guidetolerance="10"
     inkscape:pageopacity="0"
     inkscape:pageshadow="2"
     inkscape:window-width="1600"
     inkscape:window-height="837"
     id="namedview3443"
     showgrid="false"
     inkscape:zoom="5.234375"
     inkscape:cx="16.829163"
     inkscape:cy="28.407855"
     inkscape:window-x="-8"
     inkscape:window-y="-8"
     inkscape:window-maximized="1"
     inkscape:current-layer="svg3441" />
  <defs
     id="defs3412">
    <style
       id="style3410">.cls-1{fill:#dbd9d9;}.cls-2{fill:#aeaeaf;}.cls-3{fill:#d37b93;}.cls-4{fill:#eaeaea;}.cls-5{fill:#2d2d2d;}</style>
  </defs>
  <g
     id="rabbit"
     transform="matrix(1.1904757,0,0,1.1851852,-6.0952124,-5.925926)">
    <path
       class="cls-1"
       d="M 30,13 V 26.1 A 21,21 0 0 0 14,36.18 V 13 a 8,8 0 1 1 16,0 z"
       id="path3416" />
    <path
       class="cls-2"
       d="M 50,13 V 36.18 A 21,21 0 0 0 34,26.1 V 13 a 8,8 0 1 1 16,0 z"
       id="path3418" />
    <path
       class="cls-1"
       d="M 50,13 V 36.18 A 21,21 0 0 0 34,26.1 V 13 a 8,8 0 1 1 16,0 z"
       id="path3420" />
    <path
       class="cls-3"
       d="m 25,13 v 14.21 a 20.41,20.41 0 0 0 -6,3.3 V 13 a 3,3 0 0 1 6,0 z"
       id="path3422" />
    <path
       class="cls-4"
       d="M 53,47 A 12,12 0 0 1 41,59 H 23 a 12,12 0 0 1 -12,-12 20.94,20.94 0 0 1 8,-16.49 20.41,20.41 0 0 1 6,-3.3 20.75,20.75 0 0 1 5,-1.11 20,20 0 0 1 4,0 20.75,20.75 0 0 1 5,1.11 20.41,20.41 0 0 1 6,3.3 21,21 0 0 1 8,16.49 z"
       id="path3424" />
    <path
       class="cls-1"
       d="m 28.5,57 a 4.51,4.51 0 0 1 -4.5,-4.5 1,1 0 0 1 2,0 2.5,2.5 0 0 0 5,0 1,1 0 0 1 2,0 4.51,4.51 0 0 1 -4.5,4.5 z"
       id="path3426" />
    <path
       class="cls-1"
       d="m 35.5,57 a 4.51,4.51 0 0 1 -4.5,-4.5 1,1 0 0 1 2,0 2.5,2.5 0 0 0 5,0 1,1 0 0 1 2,0 4.51,4.51 0 0 1 -4.5,4.5 z"
       id="path3428" />
    <path
       class="cls-3"
       d="m 45,13 v 17.51 a 20.41,20.41 0 0 0 -6,-3.3 V 13 a 3,3 0 0 1 6,0 z"
       id="path3430" />
    <rect
       class="cls-1"
       height="3"
       width="2"
       x="31"
       y="50"
       id="rect3432" />
    <path
       class="cls-3"
       d="m 32,52 v 0 L 29.77,50.81 A 1.49,1.49 0 0 1 29,49.48 v 0 A 1.43,1.43 0 0 1 30.39,48 h 3.22 A 1.43,1.43 0 0 1 35,49.48 v 0 a 1.49,1.49 0 0 1 -0.77,1.33 z"
       id="path3434" />
    <circle
       class="cls-5"
       cx="40.5"
       cy="42.5"
       r="1.5"
       id="circle3436" />
    <circle
       class="cls-5"
       cx="23.5"
       cy="42.5"
       r="1.5"
       id="circle3438" />
  </g>
</svg>
