<?xml version="1.0" encoding="UTF-8" standalone="no"?>
<svg
   xmlns:dc="http://purl.org/dc/elements/1.1/"
   xmlns:cc="http://creativecommons.org/ns#"
   xmlns:rdf="http://www.w3.org/1999/02/22-rdf-syntax-ns#"
   xmlns:svg="http://www.w3.org/2000/svg"
   xmlns="http://www.w3.org/2000/svg"
   viewBox="0 0 64 64"
   version="1.1"
   id="svg25">
  <metadata
     id="metadata29">
    <rdf:RDF>
      <cc:Work
         rdf:about="">
        <dc:format>image/svg+xml</dc:format>
        <dc:type
           rdf:resource="http://purl.org/dc/dcmitype/StillImage" />
        <dc:title></dc:title>
      </cc:Work>
    </rdf:RDF>
  </metadata>
  <defs
     id="defs4">
    <style
       id="style2">.cls-1{fill:#965500;}.cls-2{fill:#efc589;}.cls-3{fill:#b19267;}.cls-4{fill:#2d2d2d;}.cls-5{fill:#3e2c27;}</style>
  </defs>
  <g
     id="dog"
     transform="matrix(1.28,0,0,1.28,-8.96,-8.96)">
    <path
       class="cls-1"
       d="m 25,13 v 4 A 12,12 0 0 1 13,29 6,6 0 0 1 7,23 V 19 A 12,12 0 0 1 19,7 6,6 0 0 1 24.94,12.21 5.16,5.16 0 0 1 25,13 Z"
       id="path8" />
    <path
       class="cls-1"
       d="m 57,19 v 4 A 6,6 0 0 1 51,29 12,12 0 0 1 39,17 V 13 A 5.16,5.16 0 0 1 39.06,12.21 6,6 0 0 1 45,7 12,12 0 0 1 57,19 Z"
       id="path10" />
    <path
       class="cls-2"
       d="m 53,32 v 17 a 8,8 0 0 1 -8,8 H 19 A 8,8 0 0 1 11,49 V 32 A 21.84,21.84 0 0 1 11.25,28.74 6,6 0 0 0 13,29 12,12 0 0 0 25,17 v -4 a 5.16,5.16 0 0 0 -0.06,-0.79 21.2,21.2 0 0 1 14.12,0 A 5.16,5.16 0 0 0 39,13 v 4 A 12,12 0 0 0 51,29 6,6 0 0 0 52.75,28.74 21.84,21.84 0 0 1 53,32 Z"
       id="path12" />
    <path
       class="cls-3"
       d="m 43,48 v 3 a 6,6 0 0 1 -6,6 H 27 a 6,6 0 0 1 -6,-6 v -3 a 11,11 0 0 1 8,-10.58 0.13,0.13 0 0 0 0,0.06 1.49,1.49 0 0 0 0.77,1.33 L 32,40 34.23,38.81 A 1.49,1.49 0 0 0 35,37.48 0.13,0.13 0 0 0 35,37.42 11,11 0 0 1 43,48 Z"
       id="path14" />
    <circle
       class="cls-4"
       cx="23.5"
       cy="29.5"
       r="1.5"
       id="circle16" />
    <circle
       class="cls-4"
       cx="40.5"
       cy="29.5"
       r="1.5"
       id="circle18" />
    <path
       class="cls-5"
       d="M 32,52 A 1,1 0 0 1 31,51 V 39 a 1,1 0 0 1 2,0 v 12 a 1,1 0 0 1 -1,1 z"
       id="path20" />
    <path
       class="cls-5"
       d="m 35,37.48 a 1.49,1.49 0 0 1 -0.77,1.33 L 32,40 29.77,38.81 A 1.49,1.49 0 0 1 29,37.48 0.13,0.13 0 0 1 29,37.42 1.42,1.42 0 0 1 30.39,36 h 3.22 a 1.42,1.42 0 0 1 1.39,1.42 0.13,0.13 0 0 1 0,0.06 z"
       id="path22" />
  </g>
</svg>
