<svg width="35" height="35" viewBox="0 0 35 35" fill="none" xmlns="http://www.w3.org/2000/svg">
<path d="M17.5 19.5508H11.3477C11.3477 22.9434 14.1074 25.7031 17.5 25.7031C20.8926 25.7031 23.6523 22.9434 23.6523 19.5508H17.5Z" fill="#E6455A"/>
<path d="M23.6523 19.5508H17.5V25.7031C20.8926 25.7031 23.6523 22.9434 23.6523 19.5508Z" fill="#B32437"/>
<path d="M10.3223 7.24617L6.2207 5.07275C2.40953 8.90853 0 14.3995 0 19.5509V30.8985C0 33.1637 1.9047 35.0001 4.16992 35.0001C6.43515 35.0001 8.27148 33.1637 8.27148 30.8985V21.6016L10.3223 19.8072V7.24617Z" fill="#CC7029"/>
<path d="M28.7793 5.07275L24.6777 7.24617V19.5509L26.7285 21.6016V30.8985C26.7285 33.1637 28.5649 35.0001 30.8301 35.0001C33.0953 35.0001 35 33.1637 35 30.8985V19.5509C35 14.3995 32.5905 8.90853 28.7793 5.07275Z" fill="#994A0F"/>
<path d="M19.6442 0.174561L18.1779 8.21034L26.7285 19.9032V19.5508C26.7285 17.2857 27.2091 15.5293 27.7179 13.6688C28.2395 11.7602 28.7793 9.7865 28.7793 7.24606V5.07265C26.3869 2.66469 23.1928 0.717334 19.6442 0.174561Z" fill="#CC7029"/>
<path d="M15.3442 0.176025C11.7932 0.722148 8.59523 2.68276 6.2207 5.07261V7.24603C6.2207 9.78646 6.76047 11.7601 7.28212 13.6687C7.79085 15.5293 8.27148 17.2856 8.27148 19.5507L16.81 8.33048L15.3442 0.176025Z" fill="#E68945"/>
<path d="M11.3477 10.3223C11.914 10.3223 12.373 9.86318 12.373 9.29688C12.373 8.73057 11.914 8.27148 11.3477 8.27148C10.7813 8.27148 10.3223 8.73057 10.3223 9.29688C10.3223 9.86318 10.7813 10.3223 11.3477 10.3223Z" fill="#463F3F"/>
<path d="M23.6523 10.3223C24.2187 10.3223 24.6777 9.86318 24.6777 9.29688C24.6777 8.73057 24.2187 8.27148 23.6523 8.27148C23.086 8.27148 22.627 8.73057 22.627 9.29688C22.627 9.86318 23.086 10.3223 23.6523 10.3223Z" fill="#352C2C"/>
<path d="M22.6209 11.9474C22.6209 11.9474 22.6209 11.9474 22.6209 11.9464C21.227 10.9771 20.3759 9.63929 20.2287 8.21037L19.6442 0.17459C18.9436 0.0674707 18.2305 0 17.5 0C16.7655 0 16.0485 0.0678125 15.3442 0.176094C15.3442 0.176094 14.9996 5.99437 14.7593 8.33055C14.6161 9.73144 13.791 10.9912 12.4381 11.8763C9.82857 13.5817 8.27148 16.4505 8.27148 19.5508V21.6016C8.27148 24.4284 10.5716 26.7285 13.3984 26.7285C13.818 26.7285 14.1946 26.4732 14.3508 26.0836L15.6395 22.8622C15.8071 22.4434 16.1077 22.1171 16.4747 21.8971L17.5 20.5762L18.5254 21.8971C18.8924 22.117 19.1929 22.4429 19.3605 22.8613L20.6493 26.0837C20.8054 26.4732 21.182 26.7285 21.6016 26.7285C24.4284 26.7285 26.7285 24.4284 26.7285 21.6016V19.9032C26.7285 16.712 25.1934 13.7379 22.6209 11.9474Z" fill="#FFF7CC"/>
<path d="M19.3605 22.8613L20.6493 26.0837C20.8054 26.4732 21.182 26.7285 21.6016 26.7285C24.4284 26.7285 26.7285 24.4284 26.7285 21.6016V19.9032C26.7285 16.7119 25.1934 13.7379 22.6209 11.9474C22.6209 11.9474 22.6209 11.9474 22.6209 11.9464C21.227 10.9771 20.3759 9.63929 20.2287 8.21037L19.6442 0.17459C18.9436 0.0674707 18.2305 0 17.5 0V20.5762L18.5254 21.8971C18.8924 22.117 19.1929 22.4429 19.3605 22.8613Z" fill="#FFE6B3"/>
<path d="M17.5 16.4746C16.9332 16.4746 16.4746 16.9332 16.4746 17.5V21.8971C16.7787 21.7146 17.1265 21.6016 17.5 21.6016C17.8735 21.6016 18.2213 21.7147 18.5254 21.8971V17.5C18.5254 16.9332 18.0668 16.4746 17.5 16.4746Z" fill="#766E6E"/>
<path d="M18.5254 17.5C18.5254 16.9332 18.0668 16.4746 17.5 16.4746V21.6016C17.8735 21.6016 18.2213 21.7147 18.5254 21.8971V17.5Z" fill="#5B5555"/>
<path d="M18.0127 13.3997H17.5H16.9873C15.3569 13.3755 14.4238 13.792 14.4238 15.4491C14.4238 17.1453 15.8037 18.5252 17.5 18.5252C19.1963 18.5252 20.5762 17.1453 20.5762 15.4491C20.5762 13.7813 19.6429 13.3897 18.0127 13.3997Z" fill="#463F3F"/>
<path d="M20.5762 15.449C20.5762 13.7812 19.6429 13.3896 18.0127 13.3996H17.5V18.5252C19.1963 18.5252 20.5762 17.1453 20.5762 15.449Z" fill="#352C2C"/>
</svg>
