<?xml version="1.0" encoding="UTF-8" standalone="no"?>
<svg
   xmlns:dc="http://purl.org/dc/elements/1.1/"
   xmlns:cc="http://creativecommons.org/ns#"
   xmlns:rdf="http://www.w3.org/1999/02/22-rdf-syntax-ns#"
   xmlns:svg="http://www.w3.org/2000/svg"
   xmlns="http://www.w3.org/2000/svg"
   viewBox="0 0 64 64"
   version="1.1"
   id="svg4695">
  <metadata
     id="metadata4701">
    <rdf:RDF>
      <cc:Work
         rdf:about="">
        <dc:format>image/svg+xml</dc:format>
        <dc:type
           rdf:resource="http://purl.org/dc/dcmitype/StillImage" />
        <dc:title></dc:title>
      </cc:Work>
    </rdf:RDF>
  </metadata>
  <defs
     id="defs4699" />
  <g
     data-name="Day 9"
     id="c13a2406-733d-4412-a11f-58b85c8f1b29"
     transform="matrix(1.1540277,0,0,1.1035696,-4.9277027,-3.5869098)">
    <path
       d="M 51.21,23.86 47,21 c 2.68,-2.69 4,-10 4,-10 l 0.17,-0.34 a 2,2 0 0 1 1.47,1.44 17.88,17.88 0 0 1 -1.3,11.77 z"
       data-name="&lt;Path&gt;"
       fill="#e6ddc6"
       id="6945cf43-aa9a-418d-8fcf-b858f631bef1" />
    <path
       d="m 41.44,18.29 a 4.53,4.53 0 0 1 2.77,7.05 3.21,3.21 0 0 1 -0.55,0.56 2.35,2.35 0 0 1 -3.76,-1.9 7.22,7.22 0 0 0 -0.71,-2.94 2,2 0 0 1 2.2,-2.8 z"
       data-name="&lt;Path&gt;"
       fill="#e6ddc6"
       id="c5d71a38-19f5-4455-b9fe-7d4b19335210" />
    <path
       d="m 43,30 a 2.5,2.5 0 1 1 -3,2.46 2.26,2.26 0 0 1 0,-0.26 c 1.55,-1.03 2.71,-1.96 3,-2.2 z"
       data-name="&lt;Path&gt;"
       fill="#001c63"
       id="0a324bad-91a9-49a7-b3d2-d1dc936ac444" />
    <path
       d="m 42.5,30 a 2.22,2.22 0 0 1 0.5,0 c -0.24,0.2 -1.4,1.13 -2.94,2.2 A 2.5,2.5 0 0 1 42.5,30 Z"
       data-name="&lt;Path&gt;"
       fill="#001c63"
       id="c90a60d8-7ec1-42fd-80c8-8454638ac881" />
    <path
       d="m 40,41 c 0,0 -0.71,-5 -5,-5 h -3 c 2.15,0 5.56,-2.06 8,-3.76 a 2.26,2.26 0 0 0 0,0.26 2.5,2.5 0 1 0 3,-2.5 v 0 c 0,0 5.63,-5.37 10,7 a 0.92,0.92 0 0 0 -0.38,0.42 C 52.1,38.56 50.88,40 48,40 c -3.06,0 -4.29,-1.7 -8,1 z"
       data-name="&lt;Path&gt;"
       fill="#e8e0cb"
       id="a0b11349-287f-4cc6-93aa-64cb45e27c12" />
    <path
       d="m 22.64,18.28 a 2,2 0 0 1 2.2,2.79 7.29,7.29 0 0 0 -0.72,3 2.34,2.34 0 0 1 -4,1.65 v 0 a 4.55,4.55 0 0 1 2.52,-7.38 z"
       data-name="&lt;Path&gt;"
       fill="#e6ddc6"
       id="9009bc5b-229e-4ec2-95ae-db39d999461d" />
    <path
       d="m 21.5,35 a 2.5,2.5 0 0 0 2.5,-2.5 2.26,2.26 0 0 0 0,-0.26 c 2.45,1.7 5.86,3.76 8,3.76 h -3 c -4.29,0 -5,5 -5,5 -3.71,-2.7 -4.94,-1 -8,-1 -2.88,0 -4.1,-1.44 -4.62,-2.59 A 1,1 0 0 0 11,37 c 4.38,-12.35 10,-7 10,-7 h 0.05 a 2.5101046,2.5101046 0 0 0 0.45,5 z"
       data-name="&lt;Path&gt;"
       fill="#e8e0cb"
       id="18d51d5e-5abd-4c83-9b23-3ff26d56d044" />
    <path
       d="m 24,32.24 c -1.54,-1.07 -2.7,-2 -2.94,-2.2 a 2.22,2.22 0 0 1 0.45,0 2.5,2.5 0 0 1 2.49,2.2 z"
       data-name="&lt;Path&gt;"
       fill="#001c63"
       id="d4a8635b-0bc8-483d-90c1-6bd5ca88240b" />
    <path
       d="m 21.05,30 c 0.24,0.2 1.4,1.13 2.94,2.2 a 2.26,2.26 0 0 1 0,0.26 A 2.5,2.5 0 1 1 21.05,30 Z"
       data-name="&lt;Path&gt;"
       fill="#001c63"
       id="f00905ec-932b-4a40-abfa-6dcef516a7ed" />
    <path
       d="m 11.5,12.1 a 2,2 0 0 1 1.35,-1.41 L 13,11 c 0,0 1.32,7.31 4,10 l -4.21,2.86 A 17.81,17.81 0 0 1 11.5,12.1 Z"
       data-name="&lt;Path&gt;"
       fill="#e6ddc6"
       id="94d63364-a241-4b2b-bf8f-79db1ff07d16" />
    <path
       d="M 55.91,39.09 A 18.1,18.1 0 0 0 54.28,37.17 1,1 0 0 0 53,37 0.92,0.92 0 0 0 52.62,37.42 C 52.1,38.56 50.88,40 48,40 c -3.06,0 -4.29,-1.7 -8,1 0,0 -0.71,-5 -5,-5 h -6 c -4.29,0 -5,5 -5,5 -3.71,-2.7 -4.94,-1 -8,-1 -2.88,0 -4.1,-1.44 -4.62,-2.59 A 1,1 0 0 0 11,37 1.05,1.05 0 0 0 9.71,37.18 30.21,30.21 0 0 0 5.5,43 c 1,0.94 5.49,4.39 18.25,5.48 l 1,2.39 a 5,5 0 0 0 4.4,3.13 h 5.7 a 5,5 0 0 0 4.44,-3.09 l 1,-2.33 C 52.69,47.47 57.43,44 58.49,43 a 34.17,34.17 0 0 0 -2.58,-3.91 z m -19.3,1.8 -1,1.44 a 4.51,4.51 0 0 1 -7.2,0.05 l -1,-1.52 C 26.57,39.76 27.64,40 29.02,40 h 6.56 c 1.36,0 1.87,-0.21 1.03,0.88 z"
       data-name="&lt;Compound Path&gt;"
       fill="#d0d1d4"
       id="15dc9136-1354-40d9-abe9-76d5bc7eab69" />
    <path
       d="m 58.49,43 c -1.06,0.93 -5.8,4.43 -18.23,5.54 C 47.09,47.79 56.17,43 57,40 c 1,1.27 0.76,1.74 1.49,3 z"
       data-name="&lt;Path&gt;"
       fill="#adadb0"
       id="e086755e-a997-4898-ad82-bb0cd11dd6e1" />
    <path
       d="m 6.26,43 c 1.06,0.93 5.8,4.43 18.23,5.54 C 17.66,47.79 8.58,43 7.75,40 6.78,41.27 7,41.74 6.26,43 Z"
       data-name="&lt;Path&gt;"
       fill="#adadb0"
       id="54bd6db2-2db2-475b-a7be-413c1a1a154d" />
    <path
       d="M 51.29,24 V 23.89 H 51.16 L 47,21 c 2.68,-2.69 4,-10 4,-10 l 0.17,-0.34 a 1.93,1.93 0 0 0 -1.89,0.52 l -5.13,5.13 c -3.79,-3 -8,-4.89 -12.15,-4.89 -4.15,0 -8.3,1.85 -12.07,4.83 l -5.07,-5.07 a 2,2 0 0 0 -2,-0.49 L 13,11 c 0,0 1.32,7.31 4,10 l -4.21,2.86 c -4.09,5.72 -6.94,12.62 -7.52,19 0,0 0.07,0.08 0.23,0.23 A 30.21,30.21 0 0 1 9.72,37.21 1.05,1.05 0 0 1 11,37 c 4.38,-12.35 10,-7 10,-7 v 0 a 2.22,2.22 0 0 1 0.45,0 2.5,2.5 0 0 1 2.55,2.24 c 2.45,1.7 5.86,3.76 8,3.76 2.14,0 5.56,-2.06 8,-3.76 A 2.5,2.5 0 0 1 42.5,30 2.22,2.22 0 0 1 43,30 v 0 c 0,0 5.63,-5.37 10,7 a 1,1 0 0 1 1.28,0.18 29.39,29.39 0 0 1 4.21,5.82 2.91,2.91 0 0 0 0.24,-0.23 C 58.16,36.52 55.34,29.67 51.29,24 Z M 24.84,21.07 a 7.29,7.29 0 0 0 -0.72,3 2.34,2.34 0 0 1 -4,1.65 c 0,0 0,0 0,0 a 4.55,4.55 0 0 1 2.52,-7.38 v 0 a 2,2 0 0 1 2.2,2.73 z m 19.37,4.27 A 3.21,3.21 0 0 1 43.66,25.9 2.35,2.35 0 0 1 39.9,24 a 7.22,7.22 0 0 0 -0.71,-2.94 2,2 0 0 1 2.2,-2.8 v 0 a 4.53,4.53 0 0 1 2.82,7.08 z"
       data-name="&lt;Compound Path&gt;"
       fill="#687991"
       id="97044cfb-d196-4a94-92c1-ffd7bb949ec7" />
    <g
       data-name="&lt;Group&gt;"
       id="abbae414-1e71-445b-88e3-70ec2eeb5e74">
      <path
         d="m 12.85,10.69 a 2,2 0 0 1 2,0.49 l 5.07,5.07 c 3.77,-3 7.93,-4.83 12.07,-4.83 4.14,0 8.36,1.87 12.15,4.89 l 5.13,-5.13 a 1.93,1.93 0 0 1 1.89,-0.52"
         data-name="&lt;Path&gt;"
         fill="none"
         id="32cc4641-1432-42a4-8dee-9dda05ff349b"
         stroke="#001c63"
         stroke-linecap="round"
         stroke-linejoin="round"
         stroke-width="2" />
      <path
         d="M 5.5,43 5.27,42.77 c 0.58,-6.33 3.43,-13.23 7.52,-19"
         data-name="&lt;Path&gt;"
         fill="none"
         id="e98711d3-e45b-4fe3-8398-d3c1e5342df4"
         stroke="#001c63"
         stroke-linecap="round"
         stroke-linejoin="round"
         stroke-width="2" />
      <path
         d="m 51.34,23.87 -0.05,0.11 c 4.05,5.69 6.87,12.54 7.44,18.83 a 2.92,2.92 0 0 1 -0.24,0.23"
         data-name="&lt;Path&gt;"
         fill="none"
         id="2b958c28-175c-4a11-85a5-a3f3f48c2493"
         stroke="#001c63"
         stroke-linecap="round"
         stroke-linejoin="round"
         stroke-width="2" />
      <path
         d="m 58.49,43 c -1.06,0.93 -5.8,4.43 -18.23,5.54 l -1,2.33 A 5,5 0 0 1 34.85,54 h -5.7 a 5,5 0 0 1 -4.44,-3.09 l -1,-2.39 C 11,47.43 6.5,44 5.5,43 A 30.21,30.21 0 0 1 9.72,37.12 1.05,1.05 0 0 1 11,37 1,1 0 0 1 11.37,37.43 C 11.9,38.56 13.12,40 16,40 c 3.06,0 4.29,-1.7 8,1 0,0 0.71,-5 5,-5 h 6 c 4.29,0 5,5 5,5 3.71,-2.7 4.94,-1 8,-1 2.88,0 4.1,-1.44 4.62,-2.59 A 0.92,0.92 0 0 1 53,37 1,1 0 0 1 54.28,37.18 29.39,29.39 0 0 1 58.49,43 Z"
         data-name="&lt;Path&gt;"
         fill="none"
         id="3331e977-b174-410d-b356-6ab82232b46e"
         stroke="#001c63"
         stroke-linecap="round"
         stroke-linejoin="round"
         stroke-width="2" />
      <path
         d="M 12.85,10.69 13,11 c 0,0 1.32,7.31 4,10 l -4.21,2.86 A 17.81,17.81 0 0 1 11.5,12.1 2,2 0 0 1 12.85,10.69 Z"
         data-name="&lt;Path&gt;"
         fill="none"
         id="39934581-f099-490a-8512-b1efe6193b43"
         stroke="#001c63"
         stroke-linecap="round"
         stroke-linejoin="round"
         stroke-width="2" />
      <path
         d="M 51.34,23.87 H 51.21 L 47,21 c 2.68,-2.69 4,-10 4,-10 l 0.17,-0.34 a 2,2 0 0 1 1.47,1.44 17.88,17.88 0 0 1 -1.3,11.77 z"
         data-name="&lt;Path&gt;"
         fill="none"
         id="0992e2b7-78da-4a5d-9cec-5c6bfe4618aa"
         stroke="#001c63"
         stroke-linecap="round"
         stroke-linejoin="round"
         stroke-width="2" />
      <path
         d="m 11,37 v 0 c 4.38,-12.35 10,-7 10,-7 h 0.05 c 0.24,0.2 1.4,1.13 2.94,2.2 2.45,1.7 5.86,3.76 8,3.76"
         data-name="&lt;Path&gt;"
         fill="none"
         id="067c24fd-2417-4413-9dc4-b844e57a6dfa"
         stroke="#001c63"
         stroke-linecap="round"
         stroke-linejoin="round"
         stroke-width="2" />
      <path
         d="m 53,37 v 0 C 48.63,24.64 43,30 43,30 v 0 c -0.24,0.2 -1.4,1.13 -2.94,2.2 C 37.56,33.94 34.15,36 32,36"
         data-name="&lt;Path&gt;"
         fill="none"
         id="57af5944-af33-4678-96e5-b458008248de"
         stroke="#001c63"
         stroke-linecap="round"
         stroke-linejoin="round"
         stroke-width="2" />
    </g>
    <path
       d="m 35.28,38.41 a 1.67,1.67 0 0 1 1.33,2.68 l -1,1.34 a 4.51,4.51 0 0 1 -7.2,0 l -1,-1.34 a 1.67,1.67 0 0 1 1.33,-2.68 z"
       data-name="&lt;Path&gt;"
       fill="#001c63"
       id="bacdfb6b-3205-4d15-84dd-b877ddb28f45" />
  </g>
</svg>
