<svg width="19" height="15" viewBox="0 0 19 15" fill="none" xmlns="http://www.w3.org/2000/svg">
<path d="M18.8014 4.98441L14.0513 0.234319C13.7862 -0.0306465 13.3566 -0.0305669 13.0916 0.234478C12.9644 0.361712 12.893 0.534194 12.8929 0.714111V2.74986H8.14284C7.76805 2.74986 7.46424 3.05367 7.46424 3.42845C7.46424 3.80324 7.76805 4.10705 8.14284 4.10705H13.5715C13.9463 4.10705 14.2501 3.80324 14.2501 3.42845V2.35217L17.3621 5.46416L14.2501 8.57615V7.49991C14.2501 7.12512 13.9463 6.82131 13.5715 6.82131H6.10709V4.78556C6.10701 4.41078 5.80312 4.10705 5.42838 4.10713C5.2485 4.10717 5.07598 4.17862 4.94874 4.30581L0.198694 9.0559C-0.0662313 9.32091 -0.0662313 9.75044 0.198694 10.0154L4.94878 14.7655C5.07602 14.8928 5.24858 14.9643 5.42853 14.9643C5.51772 14.9646 5.60611 14.9471 5.68841 14.9128C5.94192 14.8076 6.10717 14.5602 6.10709 14.2857V12.25H10.8572C11.232 12.25 11.5358 11.9462 11.5358 11.5714C11.5358 11.1966 11.232 10.8928 10.8572 10.8928H5.42853C5.05375 10.8928 4.74994 11.1966 4.74994 11.5714V12.6476L1.63795 9.53565L4.74994 6.42367V7.49991C4.74994 7.87469 5.05375 8.1785 5.42853 8.1785H12.8929V10.2142C12.893 10.589 13.1969 10.8928 13.5716 10.8927C13.7515 10.8926 13.924 10.8212 14.0513 10.694L18.8014 5.94391C19.0662 5.67891 19.0662 5.24937 18.8014 4.98441Z" fill="#203739"/>
</svg>
