<svg width="43" height="35" viewBox="0 0 43 35" fill="none" xmlns="http://www.w3.org/2000/svg">
<path d="M42.5504 11.6682L31.8002 1.01234C31.2004 0.417939 30.228 0.418118 29.6284 1.01269C29.3405 1.29812 29.1788 1.68505 29.1787 2.08866V6.65546H18.4285C17.5803 6.65546 16.8927 7.337 16.8927 8.17776C16.8927 9.01851 17.5803 9.70005 18.4285 9.70005H30.7145C31.5627 9.70005 32.2502 9.01851 32.2502 8.17776V5.76333L39.2932 12.7445L32.2502 19.7256V17.3113C32.2502 16.4705 31.5627 15.789 30.7145 15.789H13.8213V11.2222C13.8211 10.3814 13.1333 9.70006 12.2852 9.70023C11.8782 9.70032 11.4877 9.86061 11.1998 10.1459L0.449649 20.8018C-0.149919 21.3963 -0.149919 22.3599 0.449649 22.9543L11.1998 33.6102C11.4878 33.8957 11.8783 34.0562 12.2856 34.0563C12.4874 34.0569 12.6875 34.0176 12.8737 33.9406C13.4475 33.7048 13.8215 33.1497 13.8213 32.534V27.9672H24.5715C25.4197 27.9672 26.1073 27.2856 26.1073 26.4449C26.1073 25.6041 25.4197 24.9226 24.5715 24.9226H12.2856C11.4374 24.9226 10.7498 25.6041 10.7498 26.4449V28.8592L3.70691 21.8781L10.7498 14.8969V17.3113C10.7498 18.152 11.4374 18.8336 12.2856 18.8336H29.1787V23.4004C29.1789 24.2411 29.8666 24.9225 30.7147 24.9223C31.1218 24.9222 31.5123 24.7619 31.8002 24.4766L42.5504 13.8207C43.1499 13.2262 43.1499 12.2626 42.5504 11.6682Z" fill="#71CFD7"/>
</svg>
