<svg width="104" height="104" viewBox="0 0 104 104" fill="none" xmlns="http://www.w3.org/2000/svg">
<path d="M51.9079 82.5858C74.7134 82.5858 93.2008 64.0984 93.2008 41.2929C93.2008 18.4875 74.7134 0 51.9079 0C29.1025 0 10.615 18.4875 10.615 41.2929C10.615 64.0984 29.1025 82.5858 51.9079 82.5858Z" fill="#FFD15C"/>
<path d="M18.4559 65.4502L4.24805 90.0785L20.8307 89.1982L28.3646 104L41.5079 81.214C32.0906 78.7778 24.004 73.1069 18.4559 65.4502Z" fill="#71CFD7"/>
<path d="M85.4417 65.3276C79.9346 73.0048 71.848 78.6961 62.4511 81.1733L75.6354 104L83.1693 89.1985L99.7519 90.0788L85.4417 65.3276Z" fill="#71CFD7"/>
<path d="M51.9079 71.2237C68.4382 71.2237 81.8386 57.8233 81.8386 41.293C81.8386 24.7627 68.4382 11.3623 51.9079 11.3623C35.3776 11.3623 21.9772 24.7627 21.9772 41.293C21.9772 57.8233 35.3776 71.2237 51.9079 71.2237Z" fill="#F8B64C"/>
<path d="M72.4212 38.0581C73.3425 37.1573 72.8307 35.5809 71.5614 35.3967L59.7488 33.677C59.237 33.5951 58.8071 33.288 58.5819 32.8171L53.3 22.1101C52.7268 20.9431 51.0685 20.9431 50.4953 22.1101L45.2338 32.8171C45.0086 33.2675 44.5582 33.5951 44.0669 33.677L32.2543 35.3967C30.985 35.5809 30.4732 37.1573 31.3945 38.0581L39.9315 46.3904C40.3 46.7589 40.4638 47.2707 40.3819 47.762L38.3756 59.5132C38.1504 60.7825 39.5016 61.7652 40.648 61.151L51.2118 55.603C51.6622 55.3573 52.2149 55.3573 52.6653 55.603L63.2291 61.151C64.3756 61.7447 65.7063 60.7825 65.5016 59.5132L63.4748 47.762C63.3929 47.2502 63.5567 46.7384 63.9252 46.3904L72.4212 38.0581Z" fill="white"/>
</svg>
